Coordinates
version=1
nRows=21
nColumns=22
inDegrees=yes

Units are S.I. units (second, meters, Newtons, ...)
If the header above contains a line with 'inDegrees', this indicates whether rotational values are in degrees (yes) or radians (no).

endheader
time	pelvis_tilt	pelvis_list	pelvis_rotation	pelvis_tx	pelvis_ty	pelvis_tz	hip_flexion_r	hip_adduction_r	hip_rotation_r	knee_angle_r	ankle_angle_r	subtalar_angle_r	hip_flexion_l	hip_adduction_l	hip_rotation_l	knee_angle_l	ankle_angle_l	subtalar_angle_l	lumbar_extension	lumbar_bending	lumbar_rotation
      0.01000000	      5.16829662	      2.14089531	    178.10315828	      0.10527636	      0.95436640	      1.15129007	      7.01479705	      3.99493496	     -3.19789344	    -11.06611638	     10.44410307	     -3.79762445	      7.88154853	     -3.61042130	     -0.91544495	    -14.13855335	     10.48612268	     -5.39924186	     -0.53553925	      0.90596379	      0.60227273
      0.02000000	      5.17586091	      2.14115581	    178.09414996	      0.10529186	      0.95434477	      1.15130407	      7.02002503	      3.99419683	     -3.20009068	    -11.05776122	     10.44512090	     -3.79763893	      7.88381503	     -3.61038726	     -0.91609223	    -14.13133296	     10.48728494	     -5.39895587	     -0.54538374	      0.90652127	      0.59966595
      0.03000000	      5.19568322	      2.14105178	    178.07711387	      0.10524694	      0.95431161	      1.15130103	      7.02347812	      3.99487039	     -3.19424841	    -11.02898906	     10.44534515	     -3.79639597	      7.87618169	     -3.61221019	     -0.92991839	    -14.09014284	     10.49468056	     -5.39458355	     -0.53083509	      0.90561365	      0.60042450
      0.04000000	      5.21106331	      2.14032270	    178.05321028	      0.10522214	      0.95428705	      1.15128843	      7.02528921	      3.99599181	     -3.17151565	    -11.00388384	     10.43920750	     -3.79360623	      7.87249173	     -3.61380359	     -0.94484311	    -14.06534756	     10.49829251	     -5.38650565	     -0.52796733	      0.90257885	      0.61670183
      0.05000000	      5.22053642	      2.14058741	    178.02418569	      0.10520862	      0.95427204	      1.15126666	      7.02551399	      3.99929239	     -3.13822207	    -10.98618552	     10.43075286	     -3.78987479	      7.87109665	     -3.61764422	     -0.96913490	    -14.05658152	     10.50290524	     -5.37699015	     -0.53629309	      0.90001751	      0.64189800
      0.06000000	      5.22795773	      2.14199944	    178.01389640	      0.10519819	      0.95426135	      1.15127726	      7.02947113	      3.99982034	     -3.13946083	    -10.98002433	     10.43124557	     -3.78978861	      7.87456232	     -3.61845389	     -0.96906560	    -14.05382444	     10.50348484	     -5.37679289	     -0.54898132	      0.89754436	      0.64054688
      0.07000000	      5.23526679	      2.14352719	    178.00267742	      0.10517897	      0.95425385	      1.15128847	      7.03288818	      4.00054068	     -3.13975916	    -10.97329515	     10.43138533	     -3.78960097	      7.87797296	     -3.61919217	     -0.96909528	    -14.05244749	     10.50431560	     -5.37673202	     -0.56104896	      0.89514978	      0.64140927
      0.08000000	      5.24050054	      2.15040030	    177.96074313	      0.10515328	      0.95425347	      1.15124364	      7.02964337	      4.01426502	     -3.07048845	    -10.95856984	     10.41410195	     -3.78385177	      7.88102956	     -3.63232810	     -1.01489613	    -14.06526929	     10.52237092	     -5.37650043	     -0.57459362	      0.89656245	      0.69518775
      0.09000000	      5.24649382	      2.15238789	    177.95389296	      0.10512009	      0.95425435	      1.15127134	      7.03250713	      4.01450650	     -3.07083367	    -10.95480352	     10.41435621	     -3.78381069	      7.88444316	     -3.63178568	     -1.01426603	    -14.06493224	     10.52226705	     -5.37632512	     -0.58633790	      0.89491581	      0.69590525
      0.10000000	      5.24454581	      2.15557581	    177.94309005	      0.10510682	      0.95426715	      1.15129228	      7.03360759	      4.01692316	     -3.05272543	    -10.96139812	     10.40936508	     -3.78249835	      7.89211439	     -3.63285115	     -1.01178067	    -14.08937001	     10.52051543	     -5.37558965	     -0.61093805	      0.89210057	      0.71592667
      0.11000000	      5.24984486	      2.15847576	    177.94118987	      0.10506835	      0.95427169	      1.15132977	      7.03676608	      4.01804230	     -3.04991668	    -10.96011192	     10.40884822	     -3.78222897	      7.89548193	     -3.63274374	     -1.01314788	    -14.08830972	     10.52103922	     -5.37569481	     -0.62289807	      0.88993290	      0.71653654
      0.12000000	      5.24581123	      2.16669485	    177.92560384	      0.10504959	      0.95428924	      1.15134328	      7.03725739	      4.02801176	     -3.00074865	    -10.97259661	     10.39865958	     -3.77573013	      7.89970027	     -3.64216213	     -1.04120636	    -14.11048411	     10.52912900	     -5.37919800	     -0.64911058	      0.89246658	      0.73785059
      0.13000000	      5.25045242	      2.16998260	    177.92830655	      0.10500567	      0.95429471	      1.15139052	      7.04010394	      4.02898308	     -2.99872923	    -10.97329416	     10.39795073	     -3.77540503	      7.90221301	     -3.64208529	     -1.04142790	    -14.10865019	     10.52910124	     -5.37930625	     -0.66011243	      0.88909015	      0.73762071
      0.14000000	      5.25353275	      2.17407352	    177.93427027	      0.10496811	      0.95430370	      1.15143806	      7.04306954	      4.03084522	     -2.99445150	    -10.97796640	     10.39618180	     -3.77475585	      7.90472524	     -3.64301040	     -1.04096664	    -14.10830959	     10.52886054	     -5.37965796	     -0.67369096	      0.88444160	      0.73680081
      0.15000000	      5.24650962	      2.18036329	    177.94006701	      0.10494405	      0.95432107	      1.15149131	      7.04536788	      4.03417692	     -2.98294275	    -11.00167007	     10.38898204	     -3.77174786	      7.90283944	     -3.64514937	     -1.03311497	    -14.12039090	     10.52695265	     -5.38164493	     -0.69883958	      0.88389131	      0.72950912
      0.16000000	      5.25057870	      2.18446222	    177.94248340	      0.10491159	      0.95432439	      1.15153724	      7.04735021	      4.03581117	     -2.98329828	    -11.00128418	     10.38877838	     -3.77122786	      7.90441396	     -3.64637463	     -1.03295589	    -14.11781612	     10.52727319	     -5.38218600	     -0.70864104	      0.87979809	      0.72996153
      0.17000000	      5.25349403	      2.18915457	    177.94649275	      0.10488959	      0.95432772	      1.15158562	      7.04937352	      4.03796529	     -2.98388054	    -11.00283872	     10.38806638	     -3.77051984	      7.90538808	     -3.64814995	     -1.03222701	    -14.11502712	     10.52754446	     -5.38288954	     -0.71883427	      0.87581988	      0.73114461
      0.18000000	      5.24397090	      2.20086895	    177.94847064	      0.10488577	      0.95434633	      1.15164088	      7.04882373	      4.04575092	     -2.99836757	    -11.02253904	     10.38070138	     -3.76360503	      7.89174410	     -3.65591750	     -1.01833043	    -14.11106862	     10.52815418	     -5.38981734	     -0.74482136	      0.88227017	      0.73706443
      0.19000000	      5.24743364	      2.20441841	    177.95080351	      0.10488326	      0.95434512	      1.15169810	      7.05075667	      4.04642440	     -2.99941620	    -11.01999702	     10.38077673	     -3.76303559	      7.89324771	     -3.65597075	     -1.01904868	    -14.10683377	     10.52869669	     -5.39052857	     -0.75219692	      0.87933142	      0.73813623
      0.20000000	      5.25052421	      2.20789949	    177.95215410	      0.10489186	      0.95434312	      1.15176141	      7.05317728	      4.04635410	     -3.00075509	    -11.01782057	     10.38051344	     -3.76243665	      7.89442081	     -3.65594789	     -1.01945452	    -14.10203783	     10.52936787	     -5.39141544	     -0.75946132	      0.87789258	      0.73990770
      0.21000000	      5.25337891	      2.21145952	    177.95240803	      0.10491091	      0.95434293	      1.15183168	      7.05606868	      4.04600442	     -3.00241498	    -11.01579254	     10.37976946	     -3.76170639	      7.89530704	     -3.65526286	     -1.01971946	    -14.09619414	     10.53031480	     -5.39269524	     -0.76671640	      0.87796214	      0.74243928
